<?xml version="1.0" standalone="no"?>
<!DOCTYPE svg PUBLIC "-//W3C//DTD SVG 20010904//EN"
 "http://www.w3.org/TR/2001/REC-SVG-20010904/DTD/svg10.dtd">
<svg version="1.0" xmlns="http://www.w3.org/2000/svg"
 width="244.000000pt" height="244.000000pt" viewBox="0 0 244.000000 244.000000"
 preserveAspectRatio="xMidYMid meet">
<metadata>
Created by potrace 1.14, written by Peter Selinger 2001-2017
</metadata>
<g transform="translate(0.000000,244.000000) scale(0.100000,-0.100000)"
fill="#000000" stroke="none">
<path d="M1067 2423 c-2 -1 -19 -5 -38 -7 -72 -9 -238 -56 -285 -81 -16 -8
-34 -15 -41 -15 -6 0 -13 -3 -15 -7 -2 -5 -29 -21 -61 -38 -196 -101 -388
-309 -498 -540 -106 -222 -141 -512 -89 -740 7 -27 14 -60 16 -71 2 -12 14
-53 26 -90 12 -38 22 -71 23 -74 0 -3 3 -9 7 -15 3 -5 24 -45 46 -87 168 -324
477 -550 856 -624 10 -2 44 -6 75 -10 31 -3 58 -8 60 -10 2 -2 12 1 22 7 11 5
19 6 19 1 0 -13 158 -4 240 14 14 3 40 7 59 10 19 2 40 9 46 14 7 6 14 7 17 5
6 -6 117 33 136 48 6 5 12 7 12 3 0 -6 170 82 180 93 3 3 28 21 55 40 57 40
63 44 130 109 70 68 95 98 154 184 88 129 170 328 187 453 2 17 7 41 10 55 8
35 8 241 -1 330 -4 41 -8 83 -8 93 -1 9 -4 17 -7 17 -4 0 -7 6 -8 13 -4 55
-53 191 -105 287 -60 113 -122 196 -211 285 -77 77 -204 175 -224 175 -6 0
-12 4 -14 9 -2 7 -105 58 -183 91 -19 8 -88 31 -110 36 -50 13 -63 16 -80 18
-11 2 -36 7 -55 11 -35 7 -337 14 -343 8z m167 -476 c2 -7 8 -25 14 -40 7 -15
15 -39 18 -52 3 -14 11 -25 17 -25 6 0 8 -3 4 -6 -3 -4 6 -27 20 -53 14 -25
35 -63 46 -83 12 -21 24 -38 29 -38 4 0 8 -6 8 -13 0 -7 9 -20 20 -30 11 -9
20 -22 20 -29 0 -7 14 -22 30 -33 16 -11 30 -26 30 -33 0 -7 4 -11 8 -8 5 3
15 -6 22 -19 7 -14 18 -25 24 -25 7 0 19 -8 28 -17 34 -36 64 -60 103 -84 22
-13 49 -30 60 -37 11 -7 40 -21 65 -32 25 -11 52 -24 60 -28 8 -4 41 -17 73
-27 31 -11 57 -22 57 -25 0 -3 -24 -14 -52 -24 -72 -24 -85 -30 -148 -61 -116
-59 -130 -67 -130 -76 0 -5 -7 -9 -15 -9 -8 0 -15 -4 -15 -10 0 -5 -7 -10 -15
-10 -7 0 -19 -8 -24 -17 -6 -10 -11 -15 -11 -10 0 12 -160 -149 -160 -162 0
-7 -4 -9 -10 -6 -5 3 -10 -1 -10 -9 0 -9 -4 -16 -10 -16 -5 0 -10 -5 -10 -10
0 -6 -9 -20 -20 -32 -11 -12 -20 -28 -20 -35 0 -7 -4 -13 -10 -13 -5 0 -10 -7
-10 -15 0 -8 -5 -15 -11 -15 -5 0 -8 -4 -4 -9 3 -5 0 -15 -7 -23 -7 -7 -14
-20 -16 -28 -4 -17 -44 -102 -52 -110 -3 -3 -7 -14 -9 -25 -1 -11 -8 -29 -14
-40 -11 -20 -12 -19 -15 3 -2 12 -8 22 -14 22 -6 0 -9 3 -5 6 3 3 -8 33 -24
67 -16 34 -29 68 -29 75 0 6 -3 12 -8 12 -4 0 -18 21 -32 48 -13 26 -29 50
-35 54 -6 5 -6 8 0 8 6 0 6 3 0 8 -6 4 -26 27 -45 52 -39 52 -162 175 -204
205 -15 11 -37 28 -48 37 -11 10 -29 20 -39 23 -11 4 -19 11 -19 16 0 5 -6 9
-12 9 -7 0 -24 9 -38 20 -14 11 -33 20 -42 20 -10 0 -18 3 -18 8 0 4 -15 13
-32 21 -18 7 -46 19 -63 26 -16 8 -32 12 -36 9 -4 -2 -9 3 -13 11 -3 9 0 15 9
15 8 0 15 4 15 8 0 5 6 9 13 9 15 0 96 38 148 70 20 12 40 19 43 16 3 -4 6 -1
6 5 0 6 15 19 33 28 17 9 39 25 48 35 9 10 19 16 22 13 3 -3 12 3 19 15 7 12
17 21 22 21 5 0 30 23 57 50 27 28 54 50 60 50 7 0 9 3 6 7 -4 3 3 15 16 27
12 12 36 39 52 61 16 22 32 42 35 45 4 3 17 23 30 45 13 22 27 42 31 45 3 3
10 16 14 30 4 14 11 27 14 30 4 3 20 32 36 65 15 33 33 63 39 67 6 4 7 8 3 8
-5 0 -5 5 -1 11 7 11 23 -8 28 -34z"/>
</g>
</svg>
